# xmcd CD database file
#
# Track frame offsets:
#	150
#	56455
#	99690
#	155583
#	157955
#	160958
#	164803
#	171585
#	175048
#	181390
#	185430
#	190888
#	194880
#	202945
#
# Disc length: 2993 seconds
#
# Revision: 0
# Processed by: cddbd v1.5.1PL0 Copyright (c) Steve Scherf et al.
# Submitted via: CDex 1.51
#
DISCID=c70baf0e
DTITLE=Gothenberg SO - Jaarvi - Steinberg Variations pour grand orchestre Op.2 
DYEAR=2001
DGENRE=Symphonic
TTITLE0=Symphony No.2 in Bb minor -I- Moderato - Allegro moderato
TTITLE1=Symphony No.2 in Bb minor -II- Allegro non troppo - Lento - Poco più mosso - Allegro non troppo
TTITLE2=Symphony No.2 in Bb minor -III- Lento - Allegro moderato - Andante molto sostenuto
TTITLE3=Variations pour grand orchestre Op.2 - Tema. Adagio
TTITLE4=Variations pour grand orchestre Op.2 - Variation I. Più lento (Adagio molto)
TTITLE5=Variations pour grand orchestre Op.2 - Variation II. Allegro
TTITLE6=Variations pour grand orchestre Op.2 - Variation III. Andante
TTITLE7=Variations pour grand orchestre Op.2 - Variation IV. Allegro Vivace
TTITLE8=Variations pour grand orchestre Op.2 - Variation V. Andante
TTITLE9=Variations pour grand orchestre Op.2 - Variation VI. Andante moderato
TTITLE10=Variations pour grand orchestre Op.2 - Variation VII. Allegretto
TTITLE11=Variations pour grand orchestre Op.2 - Variation VIII. Lento
TTITLE12=Variations pour grand orchestre Op.2 - Variation IX. Allegro
TTITLE13=Variations pour grand orchestre Op.2 - Finale (Variation X). Adagio - Allegro
EXTD=YEAR: 2001
EXTT0=
EXTT1=
EXTT2=
EXTT3=
EXTT4=
EXTT5=
EXTT6=
EXTT7=
EXTT8=
EXTT9=
EXTT10=
EXTT11=
EXTT12=
EXTT13=
PLAYORDER=
